name D:\school\WTK\thesis\model\3dpredictsim\Results\Batchsim_tmt_linear\Pog_s1_tmt_bCst_d00_k500_ig24.mot
datacolumns 128
datarows 4
range 0.00000000 0.03233089
endheader
time	pelvis_tilt	pelvis_list	pelvis_rotation	pelvis_tx	pelvis_ty	pelvis_tz	hip_flexion_l	hip_adduction_l	hip_rotation_l	hip_flexion_r	hip_adduction_r	hip_rotation_r	knee_angle_l	knee_angle_r	ankle_angle_l	ankle_angle_r	subtalar_angle_l	subtalar_angle_r	tmt_angle_l	tmt_angle_r	mtp_angle_l	mtp_angle_r	lumbar_extension	lumbar_bending	lumbar_rotation	arm_flex_l	arm_add_l	arm_rot_l	arm_flex_r	arm_add_r	arm_rot_r	elbow_flex_l	elbow_flex_r	pro_sup_l	pro_sup_r	glut_med1_l/activation	glut_med2_l/activation	glut_med3_l/activation	glut_min1_l/activation	glut_min2_l/activation	glut_min3_l/activation	semimem_l/activation	semiten_l/activation	bifemlh_l/activation	bifemsh_l/activation	sar_l/activation	add_long_l/activation	add_brev_l/activation	add_mag1_l/activation	add_mag2_l/activation	add_mag3_l/activation	tfl_l/activation	pect_l/activation	grac_l/activation	glut_max1_l/activation	glut_max2_l/activation	glut_max3_l/activation	iliacus_l/activation	psoas_l/activation	quad_fem_l/activation	gem_l/activation	peri_l/activation	rect_fem_l/activation	vas_med_l/activation	vas_int_l/activation	vas_lat_l/activation	med_gas_l/activation	lat_gas_l/activation	soleus_l/activation	tib_post_l/activation	flex_dig_l/activation	flex_hal_l/activation	tib_ant_l/activation	per_brev_l/activation	per_long_l/activation	per_tert_l/activation	ext_dig_l/activation	ext_hal_l/activation	ercspn_l/activation	intobl_l/activation	extobl_l/activation	glut_med1_r/activation	glut_med2_r/activation	glut_med3_r/activation	glut_min1_r/activation	glut_min2_r/activation	glut_min3_r/activation	semimem_r/activation	semiten_r/activation	bifemlh_r/activation	bifemsh_r/activation	sar_r/activation	add_long_r/activation	add_brev_r/activation	add_mag1_r/activation	add_mag2_r/activation	add_mag3_r/activation	tfl_r/activation	pect_r/activation	grac_r/activation	glut_max1_r/activation	glut_max2_r/activation	glut_max3_r/activation	iliacus_r/activation	psoas_r/activation	quad_fem_r/activation	gem_r/activation	peri_r/activation	rect_fem_r/activation	vas_med_r/activation	vas_int_r/activation	vas_lat_r/activation	med_gas_r/activation	lat_gas_r/activation	soleus_r/activation	tib_post_r/activation	flex_dig_r/activation	flex_hal_r/activation	tib_ant_r/activation	per_brev_r/activation	per_long_r/activation	per_tert_r/activation	ext_dig_r/activation	ext_hal_r/activation	ercspn_r/activation	intobl_r/activation	extobl_r/activation	
          0.00000000	         -2.92920907	         -2.05048303	          5.38168281	          0.00000000	          0.85846127	         -0.00234765	        -18.03541355	         -1.53814844	          7.45530233	         31.80891794	          2.89235392	         -2.37456100	         -7.12023844	        -15.61424323	          0.32756134	          6.61312905	         11.26885620	         -1.26332919	          2.01155335	          0.07628728	         20.65955200	         -0.10883689	         -2.06055638	          0.56524433	         -1.84210260	          7.45056456	        -13.45931123	         17.79907763	         -7.78342309	        -13.53094638	          8.25983337	         34.85574665	         14.08572443	         86.51662706	         86.51662706	          0.30798861	          0.10356058	          0.08005714	          0.33444381	          0.22158522	          0.10993742	          0.05000095	          0.05000017	          0.05000011	          0.07475942	          0.11393897	          0.05519920	          0.05000041	          0.05000034	          0.05000075	          0.05000049	          0.31757453	          0.05000425	          0.05000038	          0.05000185	          0.05000119	          0.05000075	          0.35821810	          0.60133989	          0.05000008	          0.05000030	          0.05000025	          0.18745431	          0.05406931	          0.05001040	          0.05468405	          0.31109428	          0.42067728	          0.29657053	          0.26441181	          0.28631056	          0.35769306	          0.05000002	          0.06917631	          0.16426595	          0.05000027	          0.05000006	          0.05000016	          0.05000003	          0.05000001	          0.05000003	          0.05898078	          0.05000176	          0.05000315	          0.05000166	          0.05000146	          0.05000669	          0.05898085	          0.05898085	          0.19133059	          0.05000107	          0.05000090	          0.12524141	          0.20030317	          0.12475098	          0.16020235	          0.08312764	          0.05000209	          0.05003009	          0.07525762	          0.05897590	          0.06957354	          0.10226256	          0.05000027	          0.05000047	          0.26525006	          0.05766960	          0.05002703	          0.05000011	          0.09267839	          0.10224962	          0.08187271	          0.05898069	          0.05898052	          0.05898076	          0.05000020	          0.05000349	          0.05000204	          0.48552285	          0.34525596	          0.19960778	          0.22753838	          0.53371607	          0.19442582	          0.06409086	          0.10421105	          0.10373128	
          0.01077696	         -2.92311638	         -2.15711453	          5.65097570	          0.01616971	          0.85742060	         -0.00213981	        -17.80547971	         -1.83856717	          7.23023037	         31.21178434	          3.31268903	         -2.16832225	         -9.21966863	        -15.58956593	         -0.48989462	          5.99071460	         12.27103469	         -1.74462746	          1.92910740	          0.06633312	         21.77789234	         -0.09348313	         -1.87057892	          0.80610869	         -1.91807481	          7.25658881	        -13.47691715	         18.01532064	         -8.79101809	        -13.52777170	          8.05217789	         35.97078686	         13.94912871	         86.51662706	         86.51662706	          0.26109232	          0.08779180	          0.06933726	          0.28351932	          0.18784527	          0.09319769	          0.05001033	          0.05000131	          0.05006324	          0.06337610	          0.09659012	          0.16417713	          0.11797804	          0.07068834	          0.06956810	          0.06957427	          0.26921870	          0.07424043	          0.05975649	          0.05000296	          0.05000222	          0.05000308	          0.30367353	          0.52300450	          0.05003937	          0.06957363	          0.05898109	          0.15891133	          0.14783210	          0.15890101	          0.12449408	          0.26372504	          0.35662224	          0.25141278	          0.22415096	          0.24271557	          0.30322872	          0.05000003	          0.05864313	          0.13925389	          0.05000011	          0.05000003	          0.05000016	          0.05000005	          0.06957494	          0.05000021	          0.05000005	          0.05000011	          0.05000025	          0.05000011	          0.05000014	          0.05000014	          0.05000007	          0.05000014	          0.16219741	          0.05000024	          0.05898196	          0.10617366	          0.17332140	          0.33638968	          0.19493112	          0.07047021	          0.05000015	          0.05005381	          0.06379884	          0.05000207	          0.05898089	          0.12104951	          0.05062532	          0.06957465	          0.57243795	          0.17757910	          0.13978323	          0.07464607	          0.21687373	          0.21920897	          0.18726904	          0.05000001	          0.05000004	          0.05000000	          0.05000576	          0.06957291	          0.05033042	          0.54006896	          0.29617641	          0.21613151	          0.37330899	          0.57603204	          0.25747378	          0.05433198	          0.08834320	          0.08793649	
          0.02155392	         -2.91285738	         -2.26730063	          5.89486733	          0.03263688	          0.85633959	         -0.00195349	        -17.50448845	         -2.13207678	          6.98937038	         30.44456701	          3.66275107	         -1.88321375	        -11.44266264	        -15.94874340	         -1.46160233	          5.40826103	         13.20995842	         -2.25386674	          1.80660857	         -0.06530044	         22.75787624	         -0.14737552	         -1.65778750	          1.05763571	         -1.98325762	          6.97154854	        -13.49448831	         18.15105766	         -9.81487556	        -13.53108010	          7.88913342	         37.07458545	         13.84735586	         86.51662706	         86.51662706	          0.37683160	          0.07442407	          0.05877970	          0.24034907	          0.15924280	          0.07900685	          0.05000229	          0.05000049	          0.05000038	          0.05372609	          0.08188298	          0.16230341	          0.20160654	          0.05992531	          0.05898145	          0.05898094	          0.22877157	          0.09205773	          0.05897638	          0.05879053	          0.05897850	          0.05898050	          0.25743438	          0.50075594	          0.05898076	          0.05898022	          0.05000031	          0.13471448	          0.12532280	          0.13470604	          0.10553813	          0.22356855	          0.30232062	          0.21313103	          0.19002031	          0.20575825	          0.25705724	          0.05000003	          0.05000035	          0.18972132	          0.05000009	          0.05000008	          0.05000017	          0.06169255	          0.05898101	          0.05255489	          0.30097393	          0.05000020	          0.26402563	          0.05000095	          0.05000051	          0.28252574	          0.08834053	          0.09805382	          0.15207221	          0.05000020	          0.05000135	          0.09000740	          0.21311211	          0.28516895	          0.16525040	          0.10943779	          0.05000110	          0.05941895	          0.13829755	          0.05000014	          0.05000018	          0.10261783	          0.05898088	          0.05898093	          0.48527484	          0.15053982	          0.17089948	          0.06327998	          0.18385117	          0.18583083	          0.15875427	          0.05898081	          0.05898084	          0.05898080	          0.05898041	          0.05897967	          0.05898086	          0.45783457	          0.35355828	          0.18322202	          0.31646676	          0.60878370	          0.35971781	          0.05000004	          0.09716736	          0.07454672	
          0.03233089	         -2.89999101	         -2.37617003	          6.10586286	          0.04922786	          0.85522787	         -0.00175620	        -17.10376762	         -2.41165447	          6.74495131	         29.52729468	          3.96691862	         -1.59354664	        -13.82166325	        -16.26507671	         -2.54608580	          4.97219028	         14.07962928	         -2.77970614	          1.63654779	         -0.02241420	         23.49820863	         -0.16369567	         -1.44019020	          1.31139761	         -2.03916618	          6.62116205	        -13.51841104	         18.21941897	        -10.80956855	        -13.53776247	          7.78705975	         38.15523810	         13.75100216	         86.51662706	         86.51662706	          0.31945298	          0.06309180	          0.05000004	          0.30960564	          0.13499554	          0.06697680	          0.05000316	          0.05000015	          0.05000014	          0.05000022	          0.06941845	          0.16334317	          0.17090885	          0.05080084	          0.05000135	          0.05000064	          0.19637022	          0.07804739	          0.05000046	          0.05000080	          0.05000054	          0.05000040	          0.21823580	          0.44396454	          0.05000008	          0.05000039	          0.05000023	          0.11420202	          0.11032713	          0.11420054	          0.11420114	          0.18952655	          0.25628733	          0.18067831	          0.16108662	          0.17442828	          0.21791613	          0.11311479	          0.15176593	          0.16647153	          0.05000317	          0.17230260	          0.05000124	          0.08874576	          0.05000018	          0.05000003	          0.35754937	          0.29659692	          0.35632809	          0.14397357	          0.21950438	          0.23950693	          0.07488944	          0.10896998	          0.12891675	          0.08207116	          0.05000218	          0.07630232	          0.18066230	          0.24174750	          0.14008961	          0.14725460	          0.05000029	          0.05037180	          0.11723996	          0.22022208	          0.16537459	          0.12945929	          0.05000015	          0.05000019	          0.41138379	          0.12761779	          0.14487744	          0.05364458	          0.16701199	          0.21720859	          0.16738261	          0.05000006	          0.05000011	          0.05000001	          0.05000000	          0.05000043	          0.05000027	          0.60471227	          0.36667072	          0.18542222	          0.60224168	          0.66118475	          0.30494537	          0.07235059	          0.08237205	          0.06319576	
